<?xml version="1.0" encoding="utf-8"?>
<svg width="1086" height="490" viewBox="0 0 1086 490" preserveAspectRatio="none" xmlns="http://www.w3.org/2000/svg">
 <g id="layer1" fill="#e8eaf6">
  <path id="svg_1" d="m41.622234,334.280637c-3.29258,-2.3316 -7.90415,6.8336 -10.46778,15.4705c-2.5636,8.6368 -3.45892,17.1251 -3.32208,26.1006c0.13681,8.9754 1.25126,18.4929 3.92304,26.0893c2.67182,7.5966 6.28884,11.6067 10.11395,13.5119c3.82513,1.9051 7.84842,1.7152 12.05907,-0.559c4.21067,-2.2743 -18.89525,20.8711 -16.00915,17.0813c2.88611,-3.7897 4.0607,-5.6439 5.19043,-7.5996c1.1297,-1.9556 2.2208,-4.0187 3.27326,-6.1895c1.05249,-2.1709 2.06636,-4.4493 4.69886,-10.7791c2.63247,-6.3299 6.90447,-16.9121 11.13732,-27.8714c4.23288,-10.9592 8.47595,-22.3449 12.6626,-34.0904c4.18664,-11.7455 8.4017,-23.9357 13.26703,-36.8858c4.86529,-12.9502 10.04992,-25.3451 14.69935,-36.1443c4.64943,-10.7993 8.71297,-19.9521 12.2205,-27.4885c3.5075,-7.5362 6.45902,-13.4562 10.7657,-24.3961c4.30663,-10.9399 10.27926,-27.9177 10.60958,-29.1243c0.33032,-1.2065 1.80492,-3.955 4.42386,-8.2454c2.6189,-4.2905 6.38211,-10.1227 11.28961,-17.4969c4.90753,-7.3742 37.64525,-42.9764 35.05561,-34.4077c-2.58973,8.5687 -4.50006,19.2277 -6.46486,29.2251c-1.96483,9.9975 -4.03798,19.3872 -6.1193,28.0691c-2.0813,8.6819 -4.20967,16.6948 -6.39253,24.0461c-2.18283,7.3514 -2.72394,14.1013 -3.66009,22.1614c-0.93613,8.0603 -2.26334,17.427 -3.95704,28.0755c-1.69372,10.6484 -3.81488,22.6396 -6.33104,35.9411c-2.51615,13.3015 -2.54948,13.8941 -2.9591,15.4435c-0.4096,1.5494 -1.19545,4.0558 -2.35756,7.5192c-1.16211,3.4634 -2.7005,7.8838 -4.61511,13.2611c-1.91463,5.3773 -3.97343,15.7903 -5.836,24.7445c-1.86255,8.9543 -3.49835,16.4195 -4.98535,22.4736c-1.48703,6.054 -2.78978,10.6613 -3.90345,13.8172c-1.11367,3.156 -28.16949,30.2375 -28.35278,30.3083c-0.18332,0.0707 -0.31765,-0.0459 -0.40301,-0.3498c-0.08536,-0.304 -0.12177,-0.7953 -0.1092,-1.474c0.01256,-0.6788 0.95322,-10.3636 1.53016,-16.0027c0.57693,-5.6392 0.88458,-7.4943 1.33398,-9.7421c0.44937,-2.2479 1.04047,-4.8884 1.76355,-7.9119c0.72311,-3.0233 1.57697,-6.4286 2.4111,-9.5339c0.83414,-3.1053 1.85471,-6.1036 3.31433,-9.772c1.45964,-3.6683 3.35828,-8.0066 5.69596,-13.0147c2.33768,-5.0082 5.11438,-10.6864 6.79178,-14.1034c1.6774,-3.4171 1.93432,-4.1368 2.09396,-4.8168c0.15961,-0.6801 0.22184,-1.3208 0.18664,-1.9219c-0.03518,-0.6011 -0.16787,-1.1627 -0.36468,-1.665c-0.19678,-0.5023 -0.62682,-0.8805 -1.40442,-1.1253c-0.77756,-0.2447 -1.90262,-0.3559 -3.37518,-0.3338c-1.47257,0.0221 -3.29267,0.1776 -16.05457,2.427c-12.76187,2.2492 -36.3027,6.572 -37.99481,6.6139c-1.69214,0.0418 -3.1571,-0.0479 -4.3949,-0.2692c-1.23779,-0.2214 -2.24841,-0.5743 -3.03186,-1.0588c-0.78348,-0.4847 -1.33978,-1.1007 -0.90393,-3.3738c0.43588,-2.2731 1.87619,-4.6553 18.01445,-20.8403c16.13823,-16.1851 19.61348,-18.8119 24.09798,-21.5528c4.4845,-2.7408 9.97824,-5.5958 24.68462,-11.4106c14.70637,-5.815 28.66737,-11.1544 41.83143,-15.9671c13.16407,-4.8125 25.54347,-9.1104 31.06667,-15.0937c5.52324,-5.9833 -29.55364,29.0936 -25.1429,33.5044c0,0 -8.21897,0.3175 -20.78626,4.7134c-12.56729,4.3957 -25.93664,9.3236 -40.06244,14.7379c-14.1258,5.4143 -28.98666,11.2937 -34.14398,14.1106c-5.15735,2.8169 -9.30542,5.5197 1.23755,-5.5733c10.543,-11.093 8.39438,-8.5992 7.25873,-6.2231c-1.13562,2.3761 -1.2555,4.6316 -0.62348,5.2038c0.63202,0.5723 1.49122,1.013 2.57758,1.3221c1.08633,0.309 2.39984,0.4865 3.94052,0.5323c1.54068,0.0459 3.30853,-0.0398 26.74618,-4.2595c23.43766,-4.2197 25.4894,-4.4642 27.1936,-4.5752c1.70426,-0.1111 3.061,-0.0888 4.07026,0.067c1.00922,0.1558 1.67096,0.445 1.98517,0.8676c0.31424,0.4226 0.50803,0.9616 0.60137,1.5432c0.09336,0.5815 0.08885,1.203 -0.01363,1.8646c-0.10247,0.6616 -0.30304,1.3634 -0.60167,2.1053c-0.2986,0.7419 -3.40434,6.9029 -6.0347,12.3577c-2.6304,5.4548 -4.8217,10.2398 -6.574,14.3548c-1.7523,4.1148 -3.0656,7.5599 -3.94304,10.3381c-0.87746,2.7783 -1.86872,6.4881 -2.71582,9.8029c-0.84714,3.3149 -1.53314,6.2176 -2.077,8.7272c-0.54384,2.5097 -0.94601,4.6266 -1.20644,6.3509c-0.26042,1.7242 -1.2011,11.4091 -1.68586,16.6222c-0.48478,5.2128 -0.48102,5.8292 -0.42829,6.258c0.05271,0.429 0.15439,0.6704 0.30505,0.7246c0.15067,0.0542 0.3503,-0.0791 -12.42,11.8676c-12.7703,11.9466 -11.59363,8.3069 -10.2279,3.2157c1.3657,-5.0911 2.92983,-11.643 4.70327,-19.6665c1.77346,-8.0237 3.70626,-17.4689 5.75567,-25.5235c2.04941,-8.0547 3.83862,-13.113 5.25159,-17.2143c1.41297,-4.1015 2.44964,-7.2459 3.11011,-9.4333c0.66043,-2.1873 0.94461,-3.4178 2.28518,-10.5832c1.34058,-7.1654 3.72508,-20.0302 5.71678,-31.5868c1.99166,-11.5566 3.64663,-21.8613 4.84804,-30.7971c1.20142,-8.9357 2.00589,-16.5592 3.37696,-23.4995c1.37106,-6.9405 3.53573,-14.5122 5.6459,-22.7456c2.11017,-8.2334 4.15085,-17.1133 6.12512,-26.6429c1.97428,-9.5294 3.92093,-19.7474 6.17093,-29.3613c2.25,-9.6138 4.83972,-18.1825 12.51235,-23.1233c7.6726,-4.9409 3.14653,1.9193 -0.23525,7.2377c-3.38177,5.3184 -5.61925,9.0947 -6.71243,11.3292c-1.0932,2.2345 -1.04209,2.9272 -6.97586,19.8662c-5.93378,16.939 -8.51459,21.7812 -11.65143,28.2398c-3.13683,6.4587 -6.82971,14.5339 -11.07858,24.2256c-4.24891,9.6917 -8.99408,20.94 -14.3505,33.8602c-5.35641,12.9202 -9.492,25.3084 -13.64578,37.2984c-4.15377,11.9902 -8.34577,23.6022 -12.51937,34.7798c-4.17362,11.1775 -8.39762,21.9892 -12.60325,32.3662c-4.20563,10.3771 -5.19375,12.7272 -6.22052,14.9698c-1.02673,2.2425 -2.09207,4.3775 -3.19603,6.4049c-1.104,2.0273 -2.24657,3.947 -3.4184,5.7497c-1.17183,1.8028 -5.6521,7.5082 -23.7397,24.924c-18.08755,17.4156 -22.23574,18.9951 -26.1966,18.4902c-3.9608,-0.5047 -7.75582,-3.0722 -11.36547,-7.722c-3.60968,-4.6498 -5.4678,-14.4367 -6.32825,-23.7016c-0.86041,-9.2648 -0.71068,-18.0203 0.42022,-26.2375c1.1309,-8.2173 2.07084,-14.724 2.41597,-17.346c3.15723,0.1902 35.42199,-37.6988 38.23413,-34.8867z"/>
  <path id="svg_2" d="m225.063084,290.914437c-0.86095,-0.8609 -1.7868,1.4419 -3.13879,4.2769c-1.35196,2.8351 -2.84806,5.9201 -4.23696,9.004c-1.3889,3.0839 -2.7394,6.2351 -3.6123,8.5199c-0.8729,2.2849 -1.3925,4.3262 -2.1075,7.417c-0.7151,3.0907 -1.56027,7.1653 -2.6095,12.2978c-1.0493,5.1327 -2.25454,11.2753 -3.80056,17.7177c-1.54604,6.4424 -3.31314,12.4957 -3.82849,13.869c-0.51538,1.3733 -1.03675,2.7334 -1.56879,4.0847c-0.53206,1.3515 -1.08366,2.7032 -1.65486,4.055c-0.57115,1.3519 -1.1747,2.7169 -3.7369,8.0151c-2.5622,5.2983 -4.6971,9.8337 -6.46707,13.6687c-1.77003,3.835 -3.10623,6.9008 -4.04323,9.2317c-0.937,2.3309 -1.4847,3.9371 -15.00886,17.456c-13.52414,13.5189 -13.56839,13.5259 -13.60269,13.4914c-0.0343,-0.0346 -0.05823,-0.1114 -0.07169,-0.2302c-0.01346,-0.1189 -0.01638,-0.2803 0.17069,-2.3945c0.18707,-2.114 0.75772,-5.0094 1.73525,-8.7094c0.97755,-3.7001 2.362,-8.2047 4.18775,-13.5484c1.82575,-5.3436 4.02399,-11.4575 4.18537,-11.9924c0.16138,-0.535 0.83668,-2.0474 2.02581,-4.5371c1.18915,-2.4899 2.89222,-5.9572 5.1092,-10.4019c2.21697,-4.4446 4.94781,-9.8667 11.41262,-25.5014c6.46485,-15.6347 9.3064,-20.6995 11.76435,-24.689c2.45794,-3.9896 4.58594,-6.9575 19.69635,-22.2161c15.11035,-15.2585 16.51715,-16.1218 17.56345,-15.9327c1.0463,0.1891 1.76583,1.2376 2.1095,3.9799c0.3437,2.7424 0.3116,7.1788 -0.0797,13.2924c-0.39135,6.1137 -1.1397,13.9025 -2.2783,23.3997c-1.13856,9.4971 -1.71254,13.5381 -2.505,18.0405c-0.79244,4.5026 -1.7247,9.3876 -2.89253,14.7512c-1.16787,5.3638 -2.49447,11.1289 -4.02287,17.3389c-1.5284,6.21 -1.7732,7.5335 -1.9962,8.9578c-0.22294,1.4242 -0.4144,2.9397 -0.5686,4.5405c-0.15415,1.6007 -0.271,3.2867 -0.32475,5.0325c-0.05375,1.7456 0.19861,7.8015 0.46475,12.7877c0.26615,4.9862 0.5155,8.9333 0.76444,11.8248c0.24896,2.8915 0.47456,4.7505 0.70612,5.5474c0.2315,0.797 0.78094,3.2989 1.82984,5.6727c1.0489,2.3738 2.53185,4.6847 4.33904,7.0425c1.80716,2.3578 3.87061,4.8306 4.06596,5.7428c0.19545,0.9122 -34.88145,35.9891 -33.5973,37.2733c0,0 -1.23734,-3.5464 -1.7322,-7.464c-0.4949,-3.9175 -0.9437,-7.51 -1.3106,-10.8131c-0.367,-3.3031 -0.73775,-6.2312 -1.0785,-7.7545c-0.3408,-1.5232 -0.5419,-2.7026 -0.7628,-4.9182c-0.2209,-2.2156 -0.3993,-5.5297 -0.59585,-9.8816c-0.19645,-4.3519 -0.40565,-9.7471 -0.46695,-13.7063c-0.06125,-3.9593 0.05405,-5.7255 0.1833,-7.3831c0.1293,-1.6577 0.2959,-3.2299 0.49983,-4.717c0.20397,-1.4869 0.45691,-2.9004 1.43047,-6.7946c0.9736,-3.8941 2.4969,-10.0179 3.82173,-15.7005c1.32483,-5.6825 2.45367,-10.9262 3.40017,-15.7445c0.9464,-4.8184 1.6749,-9.1759 2.6521,-16.2857c0.97715,-7.1097 2.0115,-16.0632 2.70445,-23.3573c0.69295,-7.2939 0.97565,-12.8595 0.8825,-16.7312c-0.09315,-3.8717 -0.56215,-6.0494 -1.38495,-6.8435c-0.8228,-0.7942 -1.9893,-0.6326 9.8266,-12.7615c11.8159,-12.129 9.92835,-9.8628 7.6802,-6.5441c-2.2482,3.3187 -4.91805,7.7507 -9.5616,18.0909c-4.6436,10.3402 -11.0053,25.8717 -13.5649,30.968c-2.55956,5.0963 -4.6052,9.2151 -6.137,12.3566c-1.53175,3.1415 -2.5496,5.3054 -3.0536,6.4919c-0.50397,1.1867 -0.494,1.3958 -2.5222,7.2071c-2.0283,5.8114 -3.684,10.8524 -4.93275,15.0888c-1.24885,4.2365 -2.09075,7.6684 -2.51661,10.2864c-0.4259,2.618 -0.42559,4.4122 -0.41464,4.5548c0.01096,0.1426 0.0312,0.2442 0.06076,0.3047c0.02954,0.0605 0.06861,0.0797 0.11768,0.0571c0.04916,-0.0226 -26.83224,26.8535 -26.16654,25.0176c0.6657,-1.8359 1.73578,-4.4119 3.20462,-7.722c1.46888,-3.3103 3.26984,-7.2881 5.53785,-12.0685c2.268,-4.7804 4.87948,-10.2398 5.45721,-11.5854c0.57776,-1.3457 1.1424,-2.6975 1.6875,-4.049c0.54512,-1.3516 1.07062,-2.7029 1.56094,-4.0383c0.49033,-1.3354 0.95441,-2.6639 2.67716,-8.6729c1.72275,-6.0089 2.96862,-12.7614 4.04442,-18.4898c1.0759,-5.7283 1.95967,-10.4108 2.72267,-14.1187c0.763,-3.7079 1.36798,-6.404 1.76513,-8.0382c0.3971,-1.6343 0.85505,-3.9638 1.1996,-6.0738c0.34453,-2.11 0.6586,-4.0837 0.97655,-5.9553c0.31785,-1.8714 0.86749,-3.8689 1.33045,-5.0203c1.32385,-0.2905 35.5398,-36.2283 36.40075,-35.3674z"/>
  <path id="svg_3" d="m298.591634,296.879337c-3.23955,-2.321 -4.25255,6.4459 -4.6722,13.5165c-0.4197,7.0705 -0.2896,12.4882 -0.3234,16.9666c-0.0338,4.4785 -0.21056,7.997 -0.6039,11.6616c-0.39334,3.6648 -0.9099,8.1667 -1.55655,12.8711c-0.64665,4.7046 -1.4234,9.6118 -2.23859,14.6302c-0.81512,5.0184 -1.76016,10.2392 -2.30226,13.3461c-0.542,3.1071 -0.8117,4.3047 -1.2622,5.8669c-0.4505,1.5621 -1.06774,3.4745 -1.8719,5.7574c-0.8041,2.283 -1.79514,4.9364 -16.4092,18.9204c-14.6141,13.984 -15.4348,11.5724 -15.6637,8.2879c-0.22896,-3.2845 0.18737,-7.4953 1.2489,-12.6324c1.0616,-5.137 2.76836,-11.2004 4.9413,-17.4118c2.1728,-6.2114 4.09525,-11.2522 5.67124,-15.3242c1.57606,-4.0722 2.81653,-7.1866 3.7594,-9.3811c0.94293,-2.1947 1.55932,-3.4408 2.36006,-4.9732c0.8007,-1.5325 2.315,-4.4441 4.2965,-8.0465c1.9815,-3.6024 4.43017,-7.8954 7.31194,-12.8448c2.88172,-4.9494 6.26502,-10.6238 11.93046,-18.5478c5.6655,-7.9239 12.611,-16.5987 18.4177,-23.6126c5.8066,-7.014 10.48253,-12.3752 27.94225,-29.9983c17.45971,-17.6233 19.97272,-19.778 22.55045,-21.6272c2.5778,-1.8492 5.4002,-3.4864 7.90225,-4.1524c2.50205,-0.6659 4.60885,-0.2853 6.46429,0.9977c1.85541,1.283 2.85796,4.0699 2.61292,5.1738c-0.245,1.1039 -35.3219,36.1808 -34.06896,37.4337c0,0 -0.7629,-3.4606 -1.5874,-6.2087c-0.8245,-2.748 -1.84694,-4.6468 -3.2328,-5.5312c-1.38587,-0.8844 -3.0999,-0.7896 -5.1338,0.2763c-2.0338,1.0658 -3.4582,1.7841 7.6227,-9.4812c11.08086,-11.2653 7.0433,-6.8902 1.8624,-0.8501c-5.1809,6.0403 -11.5048,13.7454 -18.9675,23.1111c-7.4628,9.3659 -11.22646,15.5696 -14.454,21.0138c-3.2276,5.4442 -6.0566,10.2662 -8.34967,14.3292c-2.29309,4.0629 -4.11883,7.4351 -5.47733,10.1165c-1.3585,2.6815 -1.7572,3.295 -2.48244,4.8573c-0.72522,1.5622 -1.77696,4.0731 -3.18956,7.5671c-1.4126,3.494 -3.1174,7.9022 -5.14864,13.2592c-2.03126,5.3569 -4.09946,11.969 -5.59116,17.7236c-1.4917,5.7546 -2.3382,10.5829 -2.53945,14.4849c-0.20125,3.9021 0.24279,6.8778 1.36639,8.8928c1.12366,2.0151 -24.58414,25.9381 -23.6554,23.4082c0.92871,-2.5299 1.67056,-4.6895 2.22146,-6.4744c0.5508,-1.7848 0.88664,-3.1709 1.0535,-4.2045c0.1669,-1.0336 1.13,-6.3211 1.9631,-11.4058c0.833,-5.0846 1.6047,-10.0354 2.2464,-14.7835c0.64164,-4.7479 1.15324,-9.2931 1.60356,-13.7043c0.45024,-4.4114 0.71534,-7.2826 0.77394,-11.0506c0.0586,-3.7678 -0.08925,-8.4322 -0.5812,-13.8558c-0.4919,-5.4236 -2.0687,-10.8652 -3.3429,-13.4681c1.5061,0.1775 33.8028,-37.6797 36.583,-34.8994z"/>
  <path id="svg_4" d="m264.227134,392.100137c0.5049,0.5049 1.1738,-0.7649 2.04866,-1.9513c0.87488,-1.1865 36.69098,-37.0249 37.62874,-37.6956c0.9378,-0.6707 2.0194,-1.196 3.2108,-1.7075c1.1914,-0.5115 2.4534,-0.9817 3.7652,-1.2295c1.31176,-0.2477 2.7491,-0.3489 4.3654,-0.3569c1.61635,-0.0079 3.39595,0.0929 5.679,0.5073c2.283,0.4146 4.9166,1.3721 7.36465,2.9021c2.44805,1.5299 4.7555,3.5874 6.81465,6.2801c2.05913,2.6927 3.99554,5.895 5.3043,9.1013c1.3087,3.2064 2.00917,6.1147 2.4098,9.2859c0.40064,3.171 0.57013,6.5361 0.5085,10.0952c-0.06166,3.559 -0.4231,7.3809 -0.77864,9.9692c-0.35556,2.5883 -0.62086,3.8748 -0.92186,5.1846c-0.3011,1.3097 -0.58864,2.5932 -0.9516,3.9397c-0.363,1.3464 -0.74226,2.6966 -1.54133,5.4135c-0.79907,2.7168 -1.92481,6.4551 -2.93077,9.6829c-1.006,3.2279 -1.8538,5.907 -2.366,7.8596c-0.5122,1.9528 -0.88713,3.3777 -1.2635,5.1424c-0.3763,1.7646 -0.65903,3.8556 -0.8454,5.5816c-0.1863,1.7261 -0.7456,3.5565 -1.14383,4.9577c-0.39827,1.401 -0.62897,2.3661 -0.80951,2.5822c-0.18061,0.2161 -35.25751,35.293 -35.01536,35.5352c0,0 0.119,-0.6744 0.40555,-1.7849c0.28655,-1.1104 0.74065,-2.6568 1.62605,-4.9028c0.8854,-2.2463 2.2475,-5.2375 3.8232,-8.7109c1.57566,-3.4734 2.48996,-5.1771 3.58945,-7.4566c1.09949,-2.2797 2.2796,-5.0305 3.36371,-8.0762c1.08414,-3.0455 2.26784,-6.5813 3.57094,-10.6272c1.3031,-4.0459 1.775,-5.4804 2.1862,-6.8666c0.4112,-1.3862 0.7913,-2.7542 1.14093,-4.1041c0.34967,-1.3499 0.63877,-2.6519 0.89551,-3.9341c0.25676,-1.2822 0.85726,-5.3182 1.13531,-9.0691c0.27805,-3.7508 0.34415,-7.3269 0.05175,-10.5814c-0.29235,-3.2545 -0.81585,-6.3151 -1.6048,-9.1473c-0.789,-2.8322 -2.66655,-6.3514 -4.70116,-9.3264c-2.03464,-2.9751 -4.29524,-5.3374 -6.71284,-7.1558c-2.4176,-1.8185 -5.0611,-3.0239 -7.89604,-3.6511c-2.83503,-0.6272 -4.76096,-0.7631 -6.61406,-0.6997c-1.85317,0.0634 -3.7827,0.4753 -5.7064,1.1535c-1.9237,0.6784 -3.8471,1.6284 -5.70835,2.7886c-1.86125,1.16 -3.85498,2.4045 -5.68075,3.7703c-1.8257,1.3658 -3.35,2.7194 13.0054,-13.5172c16.3554,-16.2367 15.5492,-15.0225 15.2148,-14.3876c-0.8394,0.13 -35.4114,35.7118 -35.9163,35.2069z"/>
  <path id="svg_5" d="m363.316564,391.689337c0.68217,0.6821 -0.83413,-0.5897 -1.92973,-2.4643c-1.0957,-1.8748 -1.8264,-4.2967 -2.3092,-7.1485c-0.48287,-2.8518 -0.84884,-6.0028 -1.3389,-11.6943c-0.49004,-5.6917 -1.3765,-12.6532 -1.96373,-18.5982c-0.58717,-5.9449 -0.86197,-10.8866 -0.78847,-14.8608c0.0735,-3.9742 0.45284,-6.9385 0.9695,-9.5115c0.5166,-2.5731 1.2741,-5.7727 2.4417,-9.4377c1.1676,-3.6651 2.7649,-7.8152 4.8367,-12.4951c2.07176,-4.6801 4.54923,-9.8212 6.3113,-13.2461c1.76217,-3.4251 2.72945,-4.9473 4.12087,-6.7879c1.39133,-1.8407 3.20679,-3.9998 5.44713,-6.4782c2.24037,-2.4784 4.95204,-5.3225 22.61915,-22.1361c17.66712,-16.8136 23.42835,-19.9285 29.685,-22.2228c6.25665,-2.2945 13.07765,-3.8373 20.42059,-4.5862c7.34296,-0.7488 15.17066,-0.6666 21.05436,-0.1585c5.88375,0.5082 9.19955,1.0408 12.1888,1.6778c2.98927,0.6368 5.65205,1.378 7.9883,2.2235c2.3363,0.8454 4.346,1.7953 6.4369,2.9488c2.09086,1.1537 4.43785,2.7145 6.7208,4.6846c2.28296,1.9702 4.5019,4.3499 6.63446,7.1611c2.13257,2.8113 4.19934,6.0339 5.61139,8.396c1.41211,2.3622 2.13295,3.9672 2.77085,6.0997c0.63797,2.1323 1.193,4.7923 1.66525,7.9797c0.47225,3.1875 0.86165,6.9026 1.13475,10.7438c0.27315,3.8412 0.34316,7.4719 0.11037,11.2143c-0.23277,3.7424 -0.73207,7.5606 -1.49311,11.4496c-0.76096,3.8889 -1.78381,7.8488 -3.63416,13.075c-1.8503,5.226 -4.20763,11.0701 -6.3393,16.0061c-2.13164,4.9357 -3.99584,8.9213 -5.6964,12.0607c-1.70056,3.1393 -3.1822,5.377 -4.6005,7.2839c-1.4183,1.9068 -3.30447,4.2862 -5.7686,6.9691c-2.464,2.6827 -32.34934,32.5122 -35.99375,35.8264c-3.64441,3.3141 -7.84225,6.9072 -15.46825,11.9487c-7.6261,5.0415 -17.25233,10.3656 -25.401,14.3306c-8.14876,3.9651 -14.7839,6.5354 -19.9227,7.7278c-5.1388,1.1925 -8.7674,0.9934 -11.5893,-0.0567c-2.8218,-1.0499 -5.7142,-2.3247 -8.4152,-4.0495c-2.701,-1.7249 -5.1575,-3.9527 -7.4345,-6.6184c-2.2769,-2.6659 -4.30555,-5.8385 -5.94965,-9.168c-1.64411,-3.3293 -3.09009,-6.1232 -4.24311,-8.7091c-1.15307,-2.5859 -1.9306,-5.0468 -2.26274,-7.4523c-0.33217,-2.4055 0.4622,-5.4367 1.5764,-6.3725c1.1142,-0.9357 36.1911,-36.0126 35.0611,-37.1426c0,0 -1.0984,3.0014 -2.0844,6.3913c-0.98604,3.3898 -1.8262,7.1346 -2.1929,10.9064c-0.3667,3.7719 -0.1876,7.4988 0.7701,10.9476c0.9577,3.449 2.806,6.9743 4.88867,10.0066c2.08263,3.0325 4.36243,5.6094 6.87958,7.6903c2.51715,2.081 5.21955,3.7184 8.17145,4.8477c2.9519,1.1293 5.5685,2.2614 9.6476,2.0494c4.0791,-0.2119 9.6895,-1.8364 16.7624,-4.8049c7.073,-2.9684 15.6325,-7.3048 25.69204,-13.0226c10.05956,-5.7177 14.63326,-9.5038 18.63846,-12.9957c4.00516,-3.4919 7.3834,-6.6313 -3.1889,3.9053c-10.57224,10.5365 -8.30075,7.9548 -6.6072,5.6766c1.69353,-2.2782 3.0292,-3.9149 4.58385,-6.4531c1.55465,-2.5382 3.32815,-5.9782 5.35498,-10.3539c2.02687,-4.3759 4.23822,-9.619 6.66852,-15.7637c2.4303,-6.1446 3.62755,-10.1517 4.56311,-14.0879c0.93564,-3.9362 1.60944,-7.8016 2.02149,-11.5962c0.41205,-3.7944 0.57185,-7.5277 0.48999,-11.2102c-0.08194,-3.6823 -0.41604,-7.749 -0.83304,-11.2882c-0.41696,-3.5392 -0.91684,-6.5507 -1.49954,-9.0349c-0.58271,-2.4841 -1.24826,-4.4407 -1.99666,-5.8697c-0.7484,-1.4291 -2.79656,-4.9003 -4.9431,-7.9278c-2.1466,-3.0274 -4.3228,-5.6799 -6.5631,-7.9231c-2.24025,-2.243 -4.54457,-4.0767 -6.91285,-5.5012c-2.36835,-1.4243 -4.16045,-2.4436 -6.27905,-3.3586c-2.1186,-0.9151 -4.56367,-1.7257 -7.3353,-2.4322c-2.7716,-0.7064 -5.86966,-1.3085 -9.2943,-1.8063c-3.4246,-0.4979 -11.6586,-1.0512 -19.39714,-0.784c-7.73846,0.2671 -14.91266,1.2858 -21.55701,3.0906c-6.64428,1.8048 -12.82751,4.4645 -18.41211,7.8413c-5.58454,3.3768 18.44922,-20.595 15.95191,-17.9299c-2.49732,2.6649 -4.59545,5.0362 -6.26955,7.0892c-1.67406,2.053 -2.9241,3.7875 -3.7457,5.1992c-0.8216,1.4118 -3.53236,6.823 -5.85536,11.7912c-2.323,4.968 -4.16044,9.3952 -5.61108,13.3802c-1.45062,3.985 -2.44049,7.4538 -2.98696,10.4238c-0.54637,2.9701 -1.1481,5.2797 -1.415,8.5701c-0.267,3.2904 -0.1482,7.511 0.2822,12.7355c0.4304,5.2246 1.18256,11.4432 2.5241,18.3882c1.34157,6.9448 2.5995,9.3253 4.0554,11.3256c1.4559,2.0003 3.11576,3.6143 4.85154,4.9705c1.73572,1.3561 3.16226,2.839 3.92041,3.4749c0.07599,-0.0462 -34.31875,35.7128 -35.00092,35.0307z"/>
  <path id="svg_6" d="m469.400634,418.288037c0.2269,0.2269 0.25126,-0.277 0.2961,-0.574c0.0448,-0.2969 35.1871,-35.4639 35.27285,-35.3469c0.08581,0.1169 0.19215,0.4406 0.43785,3.2121c0.2457,2.7716 0.05995,7.8068 -0.00914,11.8201c-0.06909,4.0134 0.04718,6.9365 0.21448,8.9033c0.16726,1.9667 0.46746,2.8954 0.99389,3.9347c0.52647,1.0393 1.36027,2.5668 2.20691,3.8645c0.84662,1.2977 1.70146,2.37 2.57366,3.2081c0.8722,0.838 1.7614,1.4419 3.2238,1.9827c1.4625,0.5408 3.597,0.5514 5.87344,-0.3491c2.27646,-0.9004 4.68182,-2.6987 -6.61011,8.4311c-11.29187,11.1298 -8.58953,7.4964 -6.60033,4.4136c1.9891,-3.0828 3.1071,-5.0421 4.1405,-7.0644c1.0334,-2.0225 1.97863,-4.104 2.8464,-6.2555c0.8678,-2.1515 1.65823,-4.373 2.84964,-9.0137c1.19146,-4.6408 2.69421,-10.9496 3.92216,-16.1384c1.228,-5.1889 2.22274,-9.2995 3.0046,-12.3521c0.78186,-3.0526 1.32617,-5.0225 2.41906,-8.9521c1.09284,-3.9297 3.00379,-10.6012 5.11314,-17.3948c2.10934,-6.7936 4.3484,-13.6408 6.7515,-20.5756c2.4031,-6.9348 5.01323,-14.0004 7.2638,-21.468c2.2506,-7.4677 3.8714,-14.3746 5.245,-19.9196c1.3735,-5.5449 2.48966,-9.7176 3.30955,-12.4791c0.81988,-2.7615 1.37285,-4.1412 1.77112,-4.9365c0.39823,-0.7953 0.89933,-1.9613 1.51977,-3.1781c0.62042,-1.2168 1.36016,-2.4844 2.21926,-3.8029c0.8591,-1.3184 1.83756,-2.6878 20.2418,-20.9007c18.4042,-18.2129 27.3083,-26.3894 27.7338,-25.2804c0.42556,1.1089 0.52993,3.3686 0.3349,6.7578c-0.19504,3.389 -0.69846,7.9164 -1.51474,13.5864c-0.81623,5.6699 -1.94532,12.4826 -9.1355,34.3151c-7.19013,21.8325 -11.39862,41.4288 -14.07136,53.7781c-2.6727,12.3492 -3.6339,17.265 -4.23626,21.8055c-0.60244,4.5404 -0.84604,8.7056 -0.73094,12.4956c0.1151,3.79 0.6094,7.1842 1.1516,8.7166c0.5421,1.5324 0.88433,1.3964 1.2219,1.1674c0.33766,-0.2288 -26.00193,26.1217 -25.6807,25.7139c0.3212,-0.4079 0.6408,-0.912 1.11144,-2.0327c0.47066,-1.1206 1.40436,-3.2908 2.80106,-6.2026c1.3968,-2.9118 3.2566,-6.5654 5.5795,-10.9607c2.3228,-4.3954 5.1087,-9.5325 10.05163,-21.8479c4.94294,-12.3156 11.72522,-31.3061 14.51637,-36.0215c2.7912,-4.7154 5.177,-8.8537 7.12755,-12.3848c1.9505,-3.531 3.4657,-6.4549 4.54565,-8.7718c1.08,-2.3169 1.72474,-4.0266 3.3163,-9.1718c1.5915,-5.1451 2.98925,-9.5144 4.1676,-13.082c1.1784,-3.5678 2.1713,-6.3677 2.9879,-8.4093c0.81654,-2.0416 1.4394,-3.3073 1.714,-3.86c0.2746,-0.5528 0.80695,-1.3499 1.5971,-2.3914c0.79017,-1.0414 1.838,-2.3271 3.14374,-3.8573c1.30566,-1.5301 2.86906,-3.3045 17.31736,-17.7339c14.4484,-14.4293 15.20736,-15.0692 15.7576,-15.4002c0.55017,-0.3311 0.89154,-0.3533 1.02404,-0.0667c0.13256,0.2867 0.05806,0.8805 -1.78514,5.121c-1.8432,4.2405 -3.46956,8.1788 -4.8455,11.7816c-1.37595,3.6028 -2.5015,6.8699 -3.3766,9.8014c-0.87514,2.9315 -1.49984,5.5275 -2.58675,10.5797c-1.08685,5.0523 -2.29932,11.0371 -3.58735,17.9046c-1.288,6.8673 -2.6455,14.6113 -4.11736,23.2767c-1.4718,8.6654 -3.00894,18.2032 -3.80091,21.724c-0.79193,3.5209 -1.66653,7.1698 -2.599,10.9221c-0.93243,3.7525 -1.95269,7.638 -3.06958,11.6658c-1.11695,4.0278 -2.28725,8.1545 -2.82922,12.6387c-0.54199,4.4842 -0.70758,9.2814 -0.37453,14.2697c0.33315,4.9883 1.7554,9.5771 2.3765,10.167c0.62114,0.59 -34.45577,35.6669 -32.43153,37.6911c0,0 1.66308,-8.1338 1.79199,-14.0439c0.1289,-5.9099 0.10664,-10.979 0.42314,-15.6975c0.31654,-4.7183 1.0169,-9.1311 2.2169,-13.2723c1.2,-4.1412 2.2947,-8.1317 3.3324,-12.0195c1.0376,-3.8879 1.9851,-7.6402 2.8321,-11.2464c0.847,-3.6062 1.6115,-7.0843 3.1928,-16.3973c1.58133,-9.3129 3.037,-17.6931 4.4359,-25.2095c1.3989,-7.5165 2.6722,-14.1001 3.872,-19.8032c1.19976,-5.7033 2.324,-10.5237 3.0322,-13.2315c0.7082,-2.7077 1.66677,-5.7512 2.8758,-9.1302c1.209,-3.379 2.6684,-7.0936 4.3926,-11.1583c1.72424,-4.0647 3.7227,-8.4889 3.7302,-8.9822c0.0075,-0.4933 -0.1946,-0.677 -0.6056,-0.5518c-0.411,0.1252 -1.0308,0.5591 -1.85935,1.302c-0.82861,0.7428 25.09505,-25.1667 23.61755,-23.4737c-1.47753,1.693 -2.6973,3.1417 -3.6593,4.346c-0.962,1.2044 -1.6662,2.1644 -2.11267,2.8799c-0.44643,0.7157 -0.63507,1.187 -1.32253,2.7113c-0.6874,1.5243 -1.5685,3.8246 -2.6662,6.9235c-1.09763,3.0988 -2.38956,6.9741 -3.8519,11.602c-1.46235,4.6279 -3.1185,10.0317 -3.90827,11.9438c-0.78979,1.9121 -2.01489,4.4314 -3.67523,7.5577c-1.66034,3.1264 -3.7559,6.8598 -6.2937,11.2073c-2.5378,4.3474 -5.54987,9.3412 -12.34564,28.345c-6.79586,19.0039 -9.89046,24.6355 -12.52196,29.5253c-2.63155,4.8898 -4.80007,9.038 -6.5055,12.4444c-1.70545,3.4062 -2.9479,6.0708 -3.72724,7.9936c-0.77936,1.9229 -1.09566,2.4887 -1.41816,2.9632c-0.32257,0.4743 -0.6527,0.8587 -14.31665,14.4791c-13.66395,13.6204 -13.99688,13.8121 -14.33502,13.9114c-0.33813,0.0992 -1.02527,-3.0913 -1.36933,-6.6415c-0.34405,-3.5501 -0.3396,-7.4651 0.0236,-11.7554c0.36325,-4.2903 1.08523,-8.9558 2.166,-13.9966c1.08073,-5.0407 5.2205,-24.5681 10.85374,-45.2163c5.63326,-20.6483 12.82336,-42.4808 13.84826,-48.9126c1.02485,-6.4317 1.7368,-11.7208 2.136,-15.8672c0.3991,-4.1464 0.4765,-7.1413 0.23486,-8.9875c-0.24156,-1.8461 -0.78816,-2.5573 -9.72632,5.6533c-8.93824,8.2105 16.82721,-17.2098 15.88856,-15.8574c-0.93867,1.3524 -1.758,2.6539 -2.458,3.9045c-0.69997,1.2508 -1.2806,2.4506 -1.7419,3.5996c-0.4613,1.1491 -0.8363,1.6076 -1.4782,3.4479c-0.642,1.8403 -1.55085,5.0624 -2.6923,9.632c-1.14145,4.5696 -2.58426,10.5553 -4.29404,17.9228c-1.70971,7.3677 -4.36041,14.423 -6.85146,21.3951c-2.491,6.9719 -4.83946,13.8774 -7.00297,20.6744c-2.16353,6.797 -4.15668,13.4999 -6.01223,20.1414c-1.8555,6.6414 -2.2178,7.8659 -2.8046,10.16c-0.58686,2.2942 -1.407,5.6667 -2.4795,10.1367c-1.07244,4.47 -2.37817,10.0183 -3.8828,16.6107c-1.5047,6.5924 -2.2434,8.8605 -3.0596,11.0586c-0.8162,2.1981 -1.7098,4.3263 -2.6792,6.3827c-0.9693,2.0565 -1.9999,4.027 -3.10813,5.9277c-1.10822,1.9007 -3.89327,6.1294 -6.53437,9.4454c-2.6411,3.3158 -32.88647,33.467 -35.26415,34.9813c-2.37769,1.5143 -4.60682,2.1111 -6.70179,1.8045c-2.09496,-0.3065 -3.01156,-0.7385 -3.91296,-1.4025c-0.9014,-0.6642 -1.78796,-1.5601 -2.6571,-2.6905c-0.86914,-1.1305 -1.7136,-2.5027 -2.54206,-4.1079c-0.82849,-1.6051 -1.05829,-2.0008 -1.49694,-3.0929c-0.43867,-1.092 -1.15095,-2.8155 -2.1902,-5.117c-1.0393,-2.3017 -2.47533,-5.1117 -3.89904,-8.8392c-1.42366,-3.7274 -1.54356,-4.1892 -1.64306,-4.444c-0.09943,-0.2548 -0.1784,-0.3028 17.3015,-17.6822c17.48,-17.3794 17.44196,-17.0135 17.4298,-16.7616c-0.2391,0.025 -35.0891,35.3289 -35.316,35.102z"/>
  <path id="svg_7" d="m656.970984,291.056137c0.11255,0.1126 0.1676,-0.057 17.73995,-17.5531c17.5724,-17.4959 17.5851,-17.2418 17.5766,-16.7756c-0.0085,0.4661 -0.0382,1.1439 -0.4365,3.9597c-0.3982,2.8159 -1.59306,7.84 -2.5942,12.3242c-1.00124,4.4842 -1.73995,8.36 -2.09585,11.5068c-0.35585,3.1467 -0.54211,5.7779 -0.76655,7.9375c-0.2244,2.1595 -0.4995,4.4345 -0.793,7.2437c-0.2936,2.8091 -0.5787,6.1256 -0.92543,10.0195c-0.3468,3.8941 -0.64417,8.2543 -1.18543,14.0585c-0.5412,5.8042 -1.12017,11.8024 -1.64344,16.6945c-0.5232,4.8922 -0.92186,8.6097 -1.23034,11.187c-0.30853,2.5772 -0.52686,4.014 -0.66006,4.7441c-0.1332,0.7301 -0.31235,1.6225 -0.5979,2.6779c-0.28543,1.0554 -0.6889,2.2855 -1.21585,3.6959c-0.52695,1.4104 -1.13175,2.9552 -2.18091,4.8286c-1.04914,1.8736 -2.39254,3.9099 -3.58258,5.8265c-1.19006,1.9163 -2.29566,3.7818 -3.28236,5.5617c-0.9866,1.78 -1.8544,3.4746 -0.0501,3.0144c1.8043,-0.4601 6.2988,-2.8534 10.774,-4.8349c4.47515,-1.9817 9.0412,-3.6619 13.6291,-4.9715c4.5879,-1.3094 9.2528,-2.3034 14.4607,-2.968c5.2079,-0.6645 10.3024,-1.1271 14.5318,-1.5083c4.2293,-0.3811 7.8292,-0.9164 10.5553,-1.3614c2.726,-0.4451 4.4422,-0.6641 5.5389,-0.7609c1.0967,-0.0967 2.506,-0.1693 4.2105,-0.0693c1.7044,0.1001 3.6389,0.4378 5.7619,1.0549c2.1229,0.6169 4.1806,1.7671 4.8316,1.9675c0.6511,0.2003 -34.4258,35.2772 -33.5175,36.1856c0,0 -2.2104,-1.3091 -4.1227,-2.4485c-1.9123,-1.1395 -3.2114,-2.4247 -4.3864,-3.366c-1.175,-0.9413 -2.1547,-1.6102 -3.002,-1.9438c-0.8472,-0.3337 -1.4932,-0.6625 -2.9363,-0.9778c-1.4431,-0.3154 -3.6808,-0.62 -7.0268,-0.5997c-3.346,0.0202 -7.715,0.2797 -13.0208,0.6925c-5.3058,0.4125 -9.86156,1.0358 -14.4091,2.0434c-4.54755,1.0076 -9.0181,2.3306 -13.4804,4.0377c-4.46236,1.7072 -8.91646,3.7986 -13.2936,6.2055c-4.37707,2.4068 -3.58856,0.7693 -2.68115,-0.9538c0.90741,-1.723 1.93375,-3.5315 3.11125,-5.4577c1.1776,-1.9263 2.44576,-3.9098 3.82876,-5.9746c1.38299,-2.0649 2.05864,-3.7185 2.62359,-5.2047c0.56501,-1.4861 0.97919,-2.7647 1.32995,-3.9231c0.3508,-1.1586 0.60084,-2.1596 0.7445,-2.9976c0.1437,-0.8379 0.3019,-1.5145 0.5503,-3.3316c0.24836,-1.817 0.5869,-4.7742 1.00623,-8.8625c0.41937,-4.0882 0.88827,-9.2761 1.46287,-15.6199c0.5747,-6.3438 0.8117,-10.9876 1.07034,-15.1374c0.25873,-4.1497 0.48356,-7.7496 0.71142,-10.8369c0.22779,-3.0874 0.48029,-5.6837 0.68814,-7.7195c0.2078,-2.0358 0.3016,-4.3438 0.4199,-7.0222c0.11834,-2.6786 0.0618,-5.5285 -0.27515,-8.4439c-0.33692,-2.9154 -0.89975,-5.951 -1.2536,-9.5415c-0.35388,-3.5906 -0.31015,-4.4098 -0.28755,-5.0171c0.02266,-0.6073 0.02406,-1.0028 0.0043,-1.1864c-0.0198,-0.1836 35.0162,-35.2323 34.9886,-35.1476c-0.14,-0.0277 -35.1044,35.1618 -35.21695,35.0492z"/>
  <path id="svg_8" d="m693.173034,264.878237c-0.477,-0.4771 0.6465,-1.2084 1.7764,-1.9067c1.1298,-0.6981 2.0865,-1.1842 2.9585,-1.5459c0.8718,-0.3618 1.7178,-0.6585 6.517,-2.0419c4.7992,-1.3836 15.181,-5.5093 21.1296,-8.3099c5.9486,-2.8004 10.9131,-5.1612 14.7557,-6.945c3.8428,-1.784 6.5639,-2.9908 8.1631,-3.6205c1.5994,-0.6298 2.1075,-0.7129 5.3299,-1.8226c3.2224,-1.1097 6.2478,-2.1104 9.061,-2.9871c2.8131,-0.8766 5.4208,-1.6358 7.9066,-2.3612c2.4859,-0.7255 4.8895,-1.4568 5.9174,-1.7973c1.0278,-0.3405 2.8257,-0.8066 5.4787,-1.4832c2.6531,-0.6767 6.1637,-1.5663 7.7852,-2.8402c1.6215,-1.2739 -33.4555,33.8031 -32.2777,34.9808c0,0 -2.2197,-0.8309 -4.308,-1.1488c-2.0881,-0.318 -3.7024,-0.4653 -4.8086,-0.4761c-1.1063,-0.0106 -1.6775,0.088 -3.6075,0.3164c-1.9301,0.2284 -4.19,0.6985 -6.7207,1.3515c-2.5308,0.6529 -5.2773,1.4334 -8.2357,2.338c-2.9587,0.9045 -6.16,1.9637 -6.9963,2.1936c-0.8363,0.2298 -2.8095,1.052 -5.8701,2.4167c-3.0606,1.3648 -7.3459,3.4098 -12.7379,6.0166c-5.392,2.607 -12.0198,5.9051 -24.182,11.8113c-12.1623,5.9064 -13.6154,6.7838 -15.0301,7.6624c-1.41474,0.8786 -2.86024,1.827 -4.0837,2.5927c-1.22343,0.7657 -2.3512,1.4749 -2.91295,1.8406c-0.08472,0.8427 34.51515,-34.7113 34.99215,-34.2342z"/>
  <path id="svg_9" d="m661.045994,362.096237c0.47224,0.4723 1.34229,-0.4542 19.70564,-18.8289c18.3633,-18.3746 19.1103,-19.0877 19.615,-19.5134c0.5048,-0.4257 1.0549,-0.8514 1.6936,-1.2313c0.639,-0.3798 1.5086,-0.824 2.4985,-1.2958c0.9898,-0.4718 2.0998,-0.971 3.3295,-1.497c1.2298,-0.5261 2.6194,-1.1195 4.2966,-1.9487c1.6772,-0.8293 3.4478,-1.8375 4.9372,-2.6769c1.4893,-0.8393 2.6901,-1.5026 3.6043,-1.992c0.9141,-0.4893 1.542,-0.8047 2.6521,-1.9187c1.1101,-1.1142 -33.96684,33.9627 -33.84416,34.0854c0,0 1.67586,-1.9133 1.23666,-1.824c-0.43923,0.0893 -1.1334,0.3212 -2.01363,0.6265c-0.88031,0.3053 -2.01154,0.7492 -3.40307,1.3406c-1.39155,0.5914 -3.32075,1.6625 -5.2024,2.7788c-1.8817,1.1162 -3.689,2.2508 -5.40235,3.3843c-1.71331,1.1333 -3.30035,2.2331 -4.79492,3.3332c-1.49457,1.1001 -2.34747,1.7986 -3.23263,2.5745c-0.8851,0.7759 -1.8717,1.6985 14.8558,-15.0479c16.7274,-16.7462 15.8875,-15.8798 15.4525,-15.4166c-0.9073,-0.009 -35.512,35.5402 -35.98424,35.0679z"/>
  <path id="svg_10" d="m964.134734,234.718437c-0.4103,-0.4103 -0.6252,0.6291 -0.807,1.5238c-0.1818,0.8946 -0.3302,1.6445 -0.4628,2.2671c-0.1324,0.6225 -0.3235,1.192 -0.6567,2.3946c-0.3331,1.2028 -0.9061,3.1455 -1.4721,4.9837c-0.5659,1.8382 -1.0516,3.4986 -1.5605,5.0849c-0.5089,1.5862 -0.9723,3.0294 -1.3258,4.1945c-0.3534,1.165 -0.6147,2.1798 -0.8596,3.2457c-0.245,1.0661 -0.5064,2.2158 -0.699,3.3645c-0.1926,1.1488 -0.3368,2.3166 -0.9863,7.8652c-0.6494,5.5488 -1.6385,15.2673 -1.6841,16.639c-0.0455,1.3718 -0.0599,2.5494 -0.0775,3.5674c-0.0176,1.0179 -0.0384,1.8762 -0.0623,2.5747c-0.0239,0.6984 -0.051,1.2373 -0.1155,2.4619c-0.0644,1.2247 -0.2077,2.5583 -0.2923,3.8632c-0.0846,1.3049 -0.1793,2.6499 -0.2498,4.0007c-0.0703,1.3507 -0.1852,2.776 -0.205,4.0058c-0.0199,1.2299 -0.0447,2.3416 -0.0745,3.3351c-0.0298,0.9934 -0.0402,1.8444 -0.0576,2.5792c-0.0175,0.7349 -0.0622,1.3738 -0.2338,3.8528c-0.1716,2.479 -0.3015,4.5813 -0.4327,6.35c-0.1311,1.7686 -0.2713,3.2112 -0.3658,4.2731c-0.0943,1.0618 -0.2038,1.8039 -0.6752,7.5126c-0.4715,5.7088 -0.5142,7.6777 -0.4925,9.2851c0.0219,1.6074 0.0434,2.9183 0.0324,3.9648c-0.011,1.0467 -0.0319,1.8062 -0.1159,2.3322c-0.0841,0.526 -0.3886,1.4946 -0.7529,2.1983c-0.3644,0.7038 -35.8654,36.2196 -36.3494,36.3936c-0.4839,0.1741 -1.0276,0.0834 -1.2059,0.0632c-0.1783,-0.0202 34.8986,-35.0971 34.6716,-35.3241c0,0 0.5837,0.2674 1.1074,0.2699c0.5239,0.0025 0.9878,-0.2599 -16.1464,16.7514c-17.1343,17.0112 -16.79,16.2192 -16.5026,15.4283c0.2872,-0.7908 0.7051,-1.7495 1.2518,-3.1339c0.5468,-1.3844 1.1773,-3.1494 1.9648,-5.3683c0.7876,-2.219 1.6235,-4.7829 3.0153,-9.7566c1.392,-4.9735 2.6199,-11.4388 2.74,-12.3031c0.1201,-0.8642 0.3159,-2.1393 0.5049,-3.7423c0.189,-1.603 0.3746,-3.5379 0.6306,-5.878c0.2561,-2.3401 0.4687,-4.9717 0.5116,-5.6501c0.043,-0.6782 0.1255,-1.5191 0.1708,-2.446c0.0452,-0.9268 0.0732,-1.9596 0.0964,-3.1106c0.0232,-1.1511 0.0414,-2.4204 0.1873,-3.8667c0.146,-1.4464 0.2474,-2.8181 0.3387,-4.1498c0.0913,-1.3316 0.1726,-2.6231 0.2094,-3.8402c0.0367,-1.2169 0.0978,-2.4282 0.1238,-3.0202c0.026,-0.5921 0.0489,-1.3438 0.0686,-2.2553c0.0196,-0.9115 0.0362,-1.9827 0.0151,-3.1792c-0.021,-1.1965 -0.0108,-2.5872 0.6343,-11.9618c0.645,-9.3745 0.7206,-10.5188 0.7999,-11.5992c0.0794,-1.0805 0.1344,-2.0692 0.1422,-2.9431c0.008,-0.874 -0.0168,-1.6476 -0.0259,-2.3694c-0.0091,-0.7218 0.0298,-1.6756 0.0401,-2.6982c0.0102,-1.0225 -0.0772,-2.045 -0.159,-3.1705c-0.0817,-1.1255 -0.2269,-2.285 -0.3667,-3.5475c-0.1397,-1.2624 -0.1662,-1.5403 -0.1452,-1.9769c0.021,-0.4366 0.1472,-1.0901 0.3067,-1.8883c0.1596,-0.7981 0.3525,-1.741 0.4599,-2.2607c0.5178,-0.1094 35.1844,-35.5966 35.5947,-35.1863z"/>
  <path id="svg_11" d="m925.904134,259.610737c-1.5465,-1.5465 1.7066,-2.2569 4.2279,-2.6099c2.5213,-0.3527 4.7255,-0.7627 6.5633,-1.1803c1.8377,-0.4176 3.3089,-0.8427 6.1241,-2.0352c2.8152,-1.1924 7.158,-3.0817 11.4005,-4.8635c4.2427,-1.782 8.3923,-3.4639 12.4647,-5.0616c4.0724,-1.5975 8.0673,-3.1104 10.2153,-3.8664c2.148,-0.7561 2.7102,-0.9275 3.4489,-1.1353c0.7388,-0.2077 1.699,-0.4967 2.803,-0.7893c1.1039,-0.2925 2.3724,-0.6094 12.3445,-3.0009c9.972,-2.3914 29.4682,-7.7714 33.7751,-12.3176c4.3068,-4.5461 -30.7701,30.5308 -27.3233,33.9776c0,0 -6.5583,0.1433 -24.141,3.6098c-17.5827,3.4666 -18.9689,3.8078 -20.1785,4.1125c-1.2097,0.3048 -2.2187,0.5492 -3.0529,0.7587c-0.8341,0.2096 -1.514,0.4053 -2.0173,0.5646c-0.5033,0.1593 -4.4925,1.6619 -8.5248,3.2145c-4.0321,1.5526 -8.2448,3.293 -12.5695,5.1522c-4.3246,1.8593 -8.7992,3.8755 -13.4144,6.0394c-4.6149,2.1638 -5.9947,2.747 -8.1138,3.6954c-2.1192,0.9484 -4.9649,2.2492 -8.5031,3.8684c-3.5382,1.6192 -7.7987,3.5865 -9.9753,4.4919c-0.6303,2.4519 32.9001,-34.1715 34.4466,-32.625z"/>
  <path id="svg_12" d="m1011.208634,263.840837c-0.5181,-0.518 -1.112,1.0097 -1.7646,2.9696c-0.6524,1.9599 -1.5659,4.5543 -2.5227,7.5658c-0.9568,3.0115 -1.8775,6.3606 -2.2942,8.1652c-0.4166,1.8044 -0.4504,1.971 -0.5004,2.2055c-0.05,0.2345 -0.1104,0.5312 -0.1468,0.8554c-0.0364,0.3242 -0.0744,0.7019 -0.1516,1.3854c-0.0771,0.6834 -0.1453,1.5672 -0.1938,2.3972c-0.0486,0.8301 -0.0334,1.5619 -0.0503,2.2915c-0.0169,0.7296 -0.0257,1.4166 -0.0236,1.9234c0.0021,0.5069 -0.0057,0.8797 -0.0239,1.2666c-0.0182,0.387 -0.0387,0.7802 -0.0499,1.1679c-0.0113,0.3878 -0.0192,0.7761 -0.0332,1.1742c-0.0141,0.3981 -0.0447,0.8165 -0.0782,1.2413c-0.0333,0.425 -0.0582,0.8451 -0.0781,1.2639c-0.0198,0.419 -0.042,0.8439 -0.1894,2.5743c-0.1475,1.7302 -0.3237,4.3455 -0.4944,6.4743c-0.1707,2.1287 -0.31,3.7445 -0.3798,4.8096c-0.0698,1.0649 -0.0868,1.5957 -0.1289,3.7063c-0.0421,2.1105 -0.067,6.0793 -0.364,11.6481c-0.297,5.5687 -0.335,10.0951 -0.3484,12.5681c-0.0134,2.473 -0.0306,3.0489 -0.0641,3.8326c-0.0333,0.7837 -0.0828,1.7753 -0.1483,2.9748c-0.0656,1.1994 -0.1727,2.6323 -0.2474,3.7076c-0.0749,1.0752 -0.0868,1.5859 -0.0961,2.0207c-0.0093,0.4349 -0.0156,0.7937 -0.0192,1.0767c-0.0036,0.283 -0.0045,0.49 0.0012,1.1282c0.0057,0.638 0.0121,1.706 0.0131,2.6959c0.001,0.9899 -0.0035,1.9017 0.0155,2.7067c0.0189,0.8048 0.0143,1.5496 -0.1067,4.5451c-0.1208,2.9954 -0.3432,8.2824 -0.1509,23.5384c0.1923,15.2559 0.1916,15.6234 0.1885,15.9934c-0.003,0.3701 -0.0084,0.743 -0.0129,1.1154c-0.0045,0.3725 0.0025,0.7338 0.0074,1.0978c0.0049,0.364 -0.182,4.2968 -0.2488,6.4118c-0.0667,2.1148 -0.0813,2.5905 -0.0804,3.2173c0.0009,0.6268 0.028,1.3936 0.1367,2.2451c0.1088,0.8515 0.2975,1.7894 0.5685,3.7932c0.271,2.0037 0.728,4.8584 0.9579,5.6117c0.23,0.7533 0.3596,1.479 0.5188,2.0475c0.159,0.5686 0.2851,1.0423 0.3768,1.4228c0.0917,0.3806 0.1488,0.6679 0.2211,1.4348c0.0721,0.7669 -0.0368,1.651 -0.1795,2.5052c-0.1427,0.8541 -0.3192,1.6782 -0.5653,1.9338c-0.2461,0.2556 -35.323,35.3325 -35.03,35.6255c0,0 0.1992,-0.8042 0.3644,-1.6384c0.1653,-0.8342 0.2967,-1.6982 0.4333,-2.6314c0.1366,-0.9331 0.4165,-2.0734 0.5423,-2.5862c0.1258,-0.5127 0.2734,-1.1751 0.4294,-1.9736c0.1562,-0.7986 0.3723,-1.785 0.5535,-2.8641c0.181,-1.0791 0.4171,-2.341 1.3093,-6.545c0.8921,-4.2039 1.0477,-5.5971 1.2235,-6.8441c0.1758,-1.2469 0.2595,-2.2355 0.2995,-3.0139c0.04,-0.7786 0.0526,-1.3633 0.0686,-1.785c0.016,-0.4218 0.351,-4.5029 0.4992,-6.7084c0.1482,-2.2057 0.1764,-2.6027 0.1971,-2.9915c0.0206,-0.3889 0.0274,-0.7635 0.0319,-1.1355c0.0047,-0.3719 0.007,-0.741 0.1004,-8.7419c0.0932,-8.0009 0.2104,-23.5663 0.4328,-28.8533c0.2226,-5.287 0.2419,-5.9908 0.279,-6.7961c0.0371,-0.8052 0.0672,-1.687 0.0699,-2.6249c0.0027,-0.9379 -0.0001,-1.9537 -0.0085,-3.0477c-0.0083,-1.0939 -0.0094,-1.2503 -0.0076,-1.4827c0.0017,-0.2323 0.0062,-0.5405 0.0136,-0.9248c0.0073,-0.3841 0.0175,-0.8442 0.0305,-1.3804c0.0129,-0.536 0.0621,-2.0387 0.1256,-3.3639c0.0633,-1.3252 0.1235,-2.4553 0.1676,-3.3775c0.044,-0.9224 0.0721,-1.6367 0.0841,-2.1433c0.0118,-0.5066 0.0321,-5.0154 0.1265,-9.9898c0.0942,-4.9743 0.2624,-10.4143 0.2529,-14.3489c-0.0094,-3.9344 -0.0188,-4.1179 0.0115,-4.8225c0.0302,-0.7044 0.0743,-1.9041 0.1628,-3.6296c0.0884,-1.7256 0.1691,-3.9247 0.324,-6.6794c0.155,-2.7548 0.1787,-3.1838 0.2002,-3.6067c0.0213,-0.4229 0.0404,-0.8398 0.0442,-1.2376c0.0039,-0.3978 0.0002,-0.7844 -0.0003,-1.1704c-0.0004,-0.3861 0.0092,-0.7786 0.0165,-1.165c0.0073,-0.3864 0.0018,-0.7561 -0.0118,-1.1139c-0.0136,-0.3578 -0.0291,-0.7097 -0.0345,-1.068c-0.0053,-0.3584 -0.0075,-1.0116 -0.0373,-1.6717c-0.0297,-0.66 -0.0653,-1.3485 -0.1166,-2.0557c-0.0513,-0.7073 -0.1417,-1.4095 -0.2753,-2.1033c-0.1334,-0.6939 -0.1943,-1.0068 -0.2268,-1.2968c-0.0324,-0.2897 -0.0637,-0.5291 -0.1113,-0.7007c-0.0475,-0.1713 -0.0818,-0.3043 -0.0877,-0.414c-0.0058,-0.1097 -0.2271,-2.5658 -0.4223,-4.6743c-0.1952,-2.1087 -0.3272,-3.9069 -0.181,-5.6095c0.1461,-1.7027 0.6983,-3.4376 0.9952,-4.2016c0.8151,-0.2457 35.3739,-35.8406 35.892,-35.3226z"/>
  <path id="svg_13" d="m978.888634,327.376637c0.9739,0.9739 1.0414,-1.7608 2.572,-5.1399c1.5308,-3.3792 4.026,-6.9041 21.6004,-24.6895c17.5744,-17.7852 20.7881,-20.391 24.0554,-22.6406c3.2673,-2.2498 6.0029,-3.6924 9.0721,-4.8513c3.0693,-1.1588 6.4421,-2.004 10.1144,-2.5316c3.6723,-0.5276 7.7024,-0.7957 12.2798,-0.4446c4.5773,0.3511 9.0092,2.0266 12.76,5.019c3.751,2.9925 6.7628,7.3598 9.0735,13.0641c2.3108,5.7045 3.8227,12.8436 4.6178,19.8289c0.795,6.9852 0.649,12.7098 -0.3568,17.9336c-1.0057,5.2237 -2.8027,9.8779 -5.5086,14.0804c-2.7057,4.2025 -33.2226,34.8555 -36.7318,37.601c-3.5091,2.7456 -6.5924,4.7226 -9.9767,6.4758c-3.3841,1.753 -7.1092,3.322 -11.1782,4.7099c-4.069,1.3881 -8.4931,2.6063 -12.4397,3.7986c-3.9465,1.1923 -6.9872,2.0959 -10.0525,2.7474c-3.0651,0.6514 -6.0941,0.9898 -9.0153,0.9438c-2.9212,-0.046 -5.3716,-0.8395 -6.1225,-0.8739c-0.7508,-0.0344 34.3261,-35.1113 33.3971,-36.0403c0,0 2.4307,0.9978 4.7444,1.8358c2.3136,0.8382 4.2159,1.8107 6.2141,2.4108c1.9982,0.6001 4.0236,0.8962 6.1781,0.7865c2.1546,-0.1096 6.3895,-0.7888 10.5645,-1.9327c4.1749,-1.144 8.0547,-2.5177 11.5736,-4.0555c3.5188,-1.5377 6.7568,-3.3197 9.6252,-5.2569c2.8685,-1.9373 6.9583,-5.256 -3.1892,4.3019c-10.1476,9.5578 -7.7087,5.1688 -6.0953,0.2445c1.6134,-4.9242 2.3326,-10.3148 2.2264,-16.2408c-0.1061,-5.9259 -1.2002,-13.9068 -3.0587,-20.4874c-1.8585,-6.5805 -4.4126,-11.8297 -7.7311,-15.6784c-3.3185,-3.8488 -7.3326,-6.366 -12.1111,-7.4828c-4.7785,-1.117 -9.0832,-0.9858 -13.0448,-0.5805c-3.9615,0.4053 -7.609,1.1138 -10.9642,2.1472c-3.3553,1.0335 -6.3728,2.3464 -9.1111,3.9975c-2.7384,1.651 -6.9131,4.672 4.2904,-6.8665c11.2035,-11.5384 9.5691,-9.4201 8.7531,-7.3015c-0.8162,2.1188 -0.9064,4.3303 -0.9402,5.6976c-1.0076,0.3935 -35.1106,36.4443 -36.0845,35.4704z"/>
  <path id="svg_14" d="m39.882054,228.955237c7.54685,3.3688 13.68988,-13.6764 23.13431,-29.5569c9.44443,-15.8804 23.63317,-32.0391 56.37107,-62.2808c32.73785,-30.2417 56.39828,-46.9398 70.922,-56.3198c14.5237,-9.3799 18.8342,-11.9939 26.21984,-15.65965c7.38556,-3.66575 17.84149,-8.37875 31.33362,-14.1048c13.49214,-5.72605 30.08819,-12.5329 46.41854,-18.60205c16.3303,-6.06915 30.6548,-10.3581 45.45176,-14.1425c14.79694,-3.7844 30.0376,-7.0356 45.68764,-9.7193c15.65,-2.6837 31.7782,-4.86867 48.23027,-6.3578c16.45208,-1.48914 31.84057,-2.1788 45.62219,-2.21045c13.78168,-0.03165 25.98187,0.56925 36.57704,1.82635c10.5952,1.257 19.5854,3.17017 28.62877,6.40296c9.04333,3.23284 17.58643,7.50714 23.6944,12.02024c6.10797,4.51314 9.76573,9.2801 10.98577,14.2885c1.2201,5.0084 0.00452,10.25614 -2.24627,13.9337c-2.25077,3.67754 -31.35147,32.49614 -34.86811,34.8794c-3.5166,2.3833 -8.13506,5.017 -13.85546,7.9012c-5.72034,2.8843 -12.5426,6.0192 -23.6726,9.2137c-11.12996,3.1944 -26.1937,6.7025 -41.7985,10.8422c-15.6048,4.1398 -31.7506,8.9113 -48.4374,14.3144c-16.68684,5.403 -33.9147,11.4377 -49.1137,17.4287c-15.1991,5.9909 -27.8147,11.9575 -40.0968,18.5425c-12.2822,6.5849 -24.2157,13.7729 -35.8007,21.5642c-11.58494,7.7912 -22.8213,16.1855 -14.5161,7.4547c8.3052,-8.7307 9.7164,-8.6363 11.64563,-8.8355c1.9292,-0.1991 4.37653,-0.6919 7.34192,-1.4784c2.9654,-0.7865 6.46105,-1.8787 32.37585,-11.4456c25.91474,-9.5669 73.85883,-27.3682 88.89295,-31.1121c15.03405,-3.744 27.83685,-7.0092 38.40835,-9.7953c10.57145,-2.7861 18.9116,-5.0934 25.0205,-6.9217c6.1088,-1.8284 9.9864,-3.1779 44.2234,-10.6209c34.2369,-7.4429 63.2606,-13.4479 87.13974,-18.0837c23.87922,-4.636 42.54506,-7.83396 56.03196,-9.6283c13.487,-1.7944 21.79513,-2.1853 41.627,-3.24356c19.8318,-1.05824 38.7748,-1.72304 56.8794,-2.04454c18.1045,-0.3215 35.3755,-0.3045 51.7553,0.1083c16.3798,0.41286 31.952,1.1382 43.0228,2.0748c11.0708,0.93664 19.7209,1.85204 25.9614,2.7352c6.2406,0.8832 10.0719,1.7338 11.4989,2.5467c1.427,0.8129 0.4428,1.595 1.0397,2.031c0.5969,0.4359 -27.28,28.4655 -28.7955,29.2539c-1.5156,0.7884 -4.0868,1.7525 -7.7126,2.8913c-3.6259,1.1388 -8.2918,2.4378 -27.9922,6.2184c-19.7004,3.7806 -35.9407,7.0252 -48.632,9.645c-12.6912,2.6199 -21.898,4.6795 -27.5753,6.1337c-5.6773,1.4542 -7.8405,2.3186 -11.5674,3.36c-3.7269,1.0414 -8.4788,3.0304 -14.2661,5.9774c-5.7873,2.9469 -12.5915,6.8332 -16.5715,12.4092c-3.9801,5.5758 31.0968,-29.5011 28.0162,-32.5817c0,0 3.8879,-0.9183 10.3114,-4.4501c6.4237,-3.5316 11.829,-6.1223 16.2326,-7.7888c4.4035,-1.6664 7.7906,-2.3938 11.1225,-3.4521c3.332,-1.0583 10.1535,-2.682 20.4709,-4.8775c10.3173,-2.1954 24.167,-4.9989 41.488,-8.3496c17.321,-3.3506 38.1824,-7.3174 42.4913,-8.5527c4.309,-1.2352 7.5606,-2.2931 9.7637,-3.1824c2.2031,-0.8894 3.3577,-1.6101 -10.2438,11.5453c-13.6015,13.1554 -14.5428,12.7707 -14.3538,11.9697c0.1889,-0.801 -2.0276,-1.6384 -6.6615,-2.5003c-4.634,-0.8619 -11.6778,-1.7558 -21.1312,-2.6819c-9.4533,-0.9262 -21.2942,-1.9066 -37.081,-2.5823c-15.7869,-0.6758 -32.4514,-0.9689 -49.936,-0.9373c-17.4847,0.0318 -35.8581,0.457 -55.0792,1.2347c-19.22113,0.7777 -39.2479,1.8661 -49.2823,2.7248c-10.0344,0.8587 -25.2477,3.1209 -45.607,6.7538c-20.3593,3.6329 -45.9273,8.6992 -76.6773,15.172c-30.74993,6.4729 -66.61004,14.2806 -71.2313,15.7898c-4.62135,1.509 -11.474,3.4971 -20.55794,5.9639c-9.08392,2.4669 -20.39916,5.4127 -33.94576,8.8373c-13.5465,3.4249 -29.3244,7.3284 -77.24705,25.1082c-47.92265,17.7798 -51.73791,19.042 -55.0426,20.0181c-3.30465,0.9762 -6.09735,1.6648 -8.37195,2.0597c-2.27466,0.3949 -4.0312,0.4962 8.0045,-12.9704c12.0358,-13.4665 23.0397,-22.263 34.3922,-30.4563c11.35257,-8.1933 23.05374,-15.7835 35.1035,-22.7705c12.0497,-6.987 24.44804,-13.3709 37.22624,-19.183c12.77826,-5.812 30.37296,-12.2741 47.42056,-18.0982c17.04746,-5.8242 33.5539,-11.0167 49.5194,-15.5776c15.96544,-4.5609 31.38994,-8.4901 46.27336,-11.78765c14.88344,-3.29755 22.44024,-6.59945 28.8952,-9.65075c6.45494,-3.0513 11.80804,-5.85206 16.05921,-8.4023c4.25123,-2.5502 7.40057,-4.84997 -3.89502,6.4438c-11.29555,11.2938 -8.4751,5.90545 -8.10695,0.77306c0.3682,-5.13246 -1.69914,-10.02569 -6.19115,-14.69056c-4.49205,-4.66484 -11.41175,-9.0983 -20.7666,-13.29296c-9.3548,-4.1947 -17.27495,-6.54528 -26.80015,-8.23974c-9.52517,-1.69446 -20.65536,-2.7328 -33.3905,-3.115c-12.7352,-0.3822 -27.12246,-0.0613 -43.0785,0.87965c-15.9561,0.94091 -32.3801,2.77045 -48.3825,5.15525c-16.00246,2.3849 -31.5634,5.30513 -46.6561,8.7341c-15.09276,3.42894 -29.7418,7.39104 -43.98143,11.9207c-14.23963,4.52967 -32.88312,12.03516 -48.48317,18.5203c-15.59996,6.4852 -28.11785,11.9114 -37.5503,16.2752c-9.4325,4.3639 -15.79466,7.6807 -19.0938,9.9576c-3.2991,2.2768 -30.1963,19.2345 -52.3194,35.884c-22.12304,16.6495 -11.76375,5.2827 -24.309,21.2866c-12.54524,16.0038 -20.34645,31.7296 -20.886,37.7202c-5.99737,0.533 -35.61645,41.0677 -41.07428,35.6099z"/>
  <path id="svg_15" d="m787.772334,299.966937c0.1004,0.1005 35.5263,-35.3721 35.6639,-35.2407c0.1377,0.1312 0.3422,0.5111 0.6137,1.1396c0.2715,0.6287 0.6098,1.5059 0.9312,2.4114c0.3215,0.9055 0.4822,1.7282 0.5064,2.6207c0.0243,0.8926 0.0533,1.7138 0.0391,2.5115c-0.0143,0.7977 -0.0756,1.5758 -0.0938,2.027c-0.0181,0.4512 -0.1256,1.3592 -0.4331,3.3777c-0.3076,2.0185 -0.7466,5.0787 -1.282,9.1457c-0.5353,4.0669 -0.5983,8.5718 -0.641,11.4178c-0.0427,2.846 -0.0716,3.4295 -0.1173,4.0251c-0.0458,0.5955 -0.0955,1.1899 -0.1621,1.7965c-0.0665,0.6066 -0.1499,1.2252 -0.4999,3.2743c-0.3499,2.0489 -0.9011,5.2803 -1.5099,8.2902c-0.6086,3.0098 -1.2055,5.7291 -1.8537,8.2205c-0.6483,2.4916 -1.3037,4.7112 -1.728,5.9949c-0.4245,1.2837 -0.6757,1.9114 -1.0262,2.6924c-0.3503,0.781 -0.8062,1.7217 -1.3443,2.7988c-0.5381,1.0771 -1.1524,2.2845 -2.2486,3.9973c-1.0962,1.7128 -2.4422,3.6453 -3.5659,5.3287c-1.1236,1.6833 -1.9553,3.048 -2.5299,4.1291c-0.5746,1.0809 -0.8918,1.8779 -12.9429,13.2202c-12.0511,11.3422 -9.0913,6.7532 -6.4166,2.8253c2.6747,-3.9278 5.1337,-7.264 7.2383,-9.8698c2.1046,-2.6059 3.9242,-4.5508 23.7638,-23.8979c19.8396,-19.3471 30.9221,-29.57 31.5627,-30.061c0.6408,-0.4911 1.1752,-0.8888 1.6033,-1.1932c0.4282,-0.3045 0.7501,-0.5155 0.9658,-0.6333c0.2157,-0.1178 0.3251,-0.1424 1.9488,-0.5556c1.6235,-0.4133 2.9554,-0.8197 4.0148,-1.2383c1.0595,-0.4185 1.8146,-0.8176 -11.1895,12.2579c-13.0042,13.0755 -12.8542,12.7121 -11.4076,8.9368c1.4466,-3.7752 2.6142,-7.8134 3.5029,-12.1147c0.8886,-4.3013 1.4971,-8.8644 1.7936,-13.6575c0.2965,-4.7931 0.3481,-9.8833 14.3492,-22.51c14.0011,-12.6267 14.3614,-11.4997 14.6282,-10.1669c0.267,1.3331 0.3922,2.9203 0.3843,4.7536c-0.0081,1.8332 -0.1387,3.902 -1.9868,13.0497c-1.8483,9.1478 -1.9547,11.4228 -2.1053,13.7251c-0.1503,2.3022 -0.3798,4.6666 -0.6912,7.0959c-0.3114,2.4295 -0.641,4.8601 -1.0976,7.4009c-0.4565,2.5408 -0.5527,3.128 -0.728,3.9951c-0.1752,0.867 -0.4348,2.0188 -0.8135,3.4901c-0.3787,1.4713 -0.8236,3.2095 -1.3799,5.2594c-0.5564,2.0501 -0.7252,3.6059 -0.8316,4.9343c-0.1065,1.3287 -0.074,2.3534 -0.0312,3.203c0.0428,0.8497 0.1315,1.4886 0.2226,1.9603c0.091,0.4716 0.5831,2.9602 1.4696,4.9469c0.8865,1.9868 1.9986,3.6405 3.352,4.9455c1.3533,1.3051 2.7171,2.4922 3.1925,2.6116c0.4755,0.1194 -34.8797,35.4746 -34.2348,36.1195c0,0 -1.5959,-0.8837 -2.7404,-2.3261c-1.1444,-1.4422 -1.5758,-3.7049 -1.6206,-6.4616c-0.0449,-2.7569 0.315,-6.0258 0.6358,-8.0907c0.3206,-2.065 0.4613,-2.8233 0.6346,-3.7792c0.1733,-0.9559 0.4487,-2.1786 0.7013,-3.5435c0.2526,-1.3647 0.4594,-2.8485 0.8761,-4.739c0.4167,-1.8905 0.9949,-3.8954 1.4584,-5.5852c0.4635,-1.6898 0.8232,-3.0754 1.104,-4.1816c0.2809,-1.1062 0.4507,-1.901 0.739,-3.4741c0.2883,-1.5733 0.7231,-4.0979 1.1208,-6.6023c0.3977,-2.5046 0.6912,-4.9215 0.9491,-7.3201c0.258,-2.3984 0.4112,-4.709 1.4578,-10.4898c1.0466,-5.7806 3.0336,-15.0671 3.1234,-17.0573c0.0897,-1.9903 0.0568,-3.745 -0.0772,-5.2862c-0.1337,-1.5412 -0.3864,-2.8507 -0.7875,-3.8991c-0.4012,-1.0485 26.1114,-28.8979 25.9668,-23.8953c-0.1447,5.0026 -0.6365,9.8103 -1.3396,14.2874c-0.7033,4.4771 -1.6849,8.6908 -2.9455,12.6413c-1.2606,3.9506 -2.8002,7.6382 -16.4972,21.4538c-13.6971,13.8155 -14.2401,14.1922 -15.0583,14.5594c-0.8181,0.3672 -1.9232,0.7365 -3.3489,1.1416c-1.4255,0.405 -3.1473,0.8217 -3.2922,0.8772c-0.1448,0.0557 -0.3959,0.2046 -0.7532,0.4468c-0.3574,0.2422 -0.8209,0.5777 -1.3908,1.0066c-0.5698,0.4288 -1.2459,0.9509 -12.4324,11.2778c-11.1866,10.3269 14.0815,-15.0665 12.1669,-12.9014c-1.9146,2.1653 -4.1142,4.9915 -6.5642,8.444c-2.45,3.4525 -5.2197,7.6007 -8.2397,12.3751c-3.0199,4.7744 -30.0491,31.3416 -29.646,30.45c0.4031,-0.8917 1.0633,-2.0674 1.9674,-3.5134c0.9041,-1.446 2.0363,-3.1468 3.4681,-5.1739c1.4319,-2.0271 2.1066,-3.331 2.6888,-4.4883c0.5822,-1.1573 1.0496,-2.1457 1.4321,-2.9948c0.3824,-0.8493 0.6942,-1.5735 0.9151,-2.1529c0.221,-0.5793 0.8791,-2.6157 1.4799,-4.8737c0.6007,-2.2581 1.2124,-4.806 1.776,-7.5848c0.5636,-2.7789 1.1121,-5.8215 1.6217,-9.1042c0.5095,-3.2827 0.6028,-3.908 0.6807,-4.5226c0.0777,-0.6146 0.1386,-1.2172 0.1762,-1.8013c0.0376,-0.5841 0.0516,-1.1494 0.0489,-1.7028c-0.0027,-0.5535 -0.0275,-5.5776 -0.2903,-9.453c-0.2629,-3.8757 -0.8894,-6.4775 -1.3523,-8.3323c-0.463,-1.8549 -0.8319,-2.8935 -1.0054,-3.217c-0.1734,-0.3238 -0.379,-0.7906 -0.6294,-1.2791c-0.2505,-0.4887 -0.5099,-1.0349 -0.8349,-1.5823c-0.3251,-0.5472 -0.7127,-1.0987 -0.9975,-1.8196c-0.2848,-0.7209 -0.6677,-1.7639 -0.9837,-2.5582c-0.3162,-0.7943 -0.5653,-1.3401 -0.7476,-1.6371c-0.1821,-0.2971 -0.2975,-0.3454 17.3447,-17.9643c17.5419,-17.7195 -17.7129,17.7362 -17.8133,17.6357z"/>
 </g>
</svg>
